<svg xmlns="http://www.w3.org/2000/svg" viewBox="0 0 1200 300"><defs>
<pattern id="dotsW" width="34" height="34" patternUnits="userSpaceOnUse">
  <circle cx="9" cy="9" r="5" fill="rgba(255,255,255,.55)"/>
  <circle cx="26" cy="26" r="5" fill="rgba(255,255,255,.55)"/>
</pattern>
<pattern id="stripesO" width="44" height="44" patternUnits="userSpaceOnUse" patternTransform="rotate(-35)">
  <rect width="44" height="44" fill="#ff8c1a"/>
  <rect width="22" height="44" fill="#ef6c00"/>
</pattern>
<pattern id="dotsB" width="30" height="30" patternUnits="userSpaceOnUse">
  <circle cx="8" cy="8" r="4" fill="rgba(255,255,255,.35)"/>
  <circle cx="23" cy="23" r="4" fill="rgba(255,255,255,.35)"/>
</pattern>
<clipPath id="clipGreen"><polygon points="240,0 580,0 540,300 200,300"/></clipPath>
<clipPath id="clipCyan"><polygon points="890,0 1200,0 1200,142 868,150"/></clipPath>
</defs><rect width="1200" height="300" fill="#fdf8ec"/><polygon points="0,0 250,0 218,52 252,98 214,150 250,198 212,248 244,300 0,300" fill="#e8332a" stroke="#111" stroke-width="7" stroke-linejoin="round"/><polygon points="0,0 250,0 218,52 252,98 214,150 250,198 212,248 244,300 0,300" fill="url(#dotsW)"/><polygon points="70,14 78,42 103,27 88,52 116,60 88,68 103,93 78,78 70,106 62,78 37,93 52,68 24,60 52,52 37,27 62,42" fill="#fff" stroke="#111" stroke-width="5" stroke-linejoin="round"/><polygon points="120,164 127,197 153,175 139,206 173,203 144,220 173,237 139,234 153,265 127,243 120,276 113,243 87,265 101,234 67,237 96,220 67,203 101,206 87,175 113,197" fill="#ffe14d" stroke="#111" stroke-width="5" stroke-linejoin="round"/><polygon points="60,120 65,138 81,129 72,145 90,150 72,155 81,171 65,162 60,180 55,162 39,171 48,155 30,150 48,145 39,129 55,138" fill="#ffe14d" stroke="#111" stroke-width="5" stroke-linejoin="round"/><polygon points="240,0 580,0 540,300 200,300" fill="#2bb24c" stroke="#111" stroke-width="7"/><g clip-path="url(#clipGreen)"><path d="M390,150 L810,150 L807,197 Z" fill="#1d9038"/><path d="M390,150 L799,243 L786,289 Z" fill="#2bb24c"/><path d="M390,150 L768,332 L746,373 Z" fill="#1d9038"/><path d="M390,150 L718,412 L687,447 Z" fill="#2bb24c"/><path d="M390,150 L652,478 L613,506 Z" fill="#1d9038"/><path d="M390,150 L572,528 L529,546 Z" fill="#2bb24c"/><path d="M390,150 L483,559 L437,567 Z" fill="#1d9038"/><path d="M390,150 L390,570 L343,567 Z" fill="#2bb24c"/><path d="M390,150 L297,559 L251,546 Z" fill="#1d9038"/><path d="M390,150 L208,528 L167,506 Z" fill="#2bb24c"/><path d="M390,150 L128,478 L93,447 Z" fill="#1d9038"/><path d="M390,150 L62,412 L34,373 Z" fill="#2bb24c"/><path d="M390,150 L12,332 L-6,289 Z" fill="#1d9038"/><path d="M390,150 L-19,243 L-27,197 Z" fill="#2bb24c"/><path d="M390,150 L-30,150 L-27,103 Z" fill="#1d9038"/><path d="M390,150 L-19,57 L-6,11 Z" fill="#2bb24c"/><path d="M390,150 L12,-32 L34,-73 Z" fill="#1d9038"/><path d="M390,150 L62,-112 L93,-147 Z" fill="#2bb24c"/><path d="M390,150 L128,-178 L167,-206 Z" fill="#1d9038"/><path d="M390,150 L208,-228 L251,-246 Z" fill="#2bb24c"/><path d="M390,150 L297,-259 L343,-267 Z" fill="#1d9038"/><path d="M390,150 L390,-270 L437,-267 Z" fill="#2bb24c"/><path d="M390,150 L483,-259 L529,-246 Z" fill="#1d9038"/><path d="M390,150 L572,-228 L613,-206 Z" fill="#2bb24c"/><path d="M390,150 L652,-178 L687,-147 Z" fill="#1d9038"/><path d="M390,150 L718,-112 L746,-73 Z" fill="#2bb24c"/><path d="M390,150 L768,-32 L786,11 Z" fill="#1d9038"/><path d="M390,150 L799,57 L807,103 Z" fill="#2bb24c"/></g><polygon points="240,0 580,0 540,300 200,300" fill="none" stroke="#111" stroke-width="7"/><polygon points="600,0 910,0 880,300 560,300" fill="url(#stripesO)" stroke="#111" stroke-width="7"/><polygon points="890,0 1200,0 1200,142 868,150" fill="#5ecbe8" stroke="#111" stroke-width="7"/><g clip-path="url(#clipCyan)"><path d="M1050,70 L1370,70 L1367,116 Z" fill="#46b8d8"/><path d="M1050,70 L1357,160 L1341,203 Z" fill="#5ecbe8"/><path d="M1050,70 L1319,243 L1292,280 Z" fill="#46b8d8"/><path d="M1050,70 L1260,312 L1223,339 Z" fill="#5ecbe8"/><path d="M1050,70 L1183,361 L1140,377 Z" fill="#46b8d8"/><path d="M1050,70 L1096,387 L1050,390 Z" fill="#5ecbe8"/><path d="M1050,70 L1004,387 L960,377 Z" fill="#46b8d8"/><path d="M1050,70 L917,361 L877,339 Z" fill="#5ecbe8"/><path d="M1050,70 L840,312 L808,280 Z" fill="#46b8d8"/><path d="M1050,70 L781,243 L759,203 Z" fill="#5ecbe8"/><path d="M1050,70 L743,160 L733,116 Z" fill="#46b8d8"/><path d="M1050,70 L730,70 L733,24 Z" fill="#5ecbe8"/><path d="M1050,70 L743,-20 L759,-63 Z" fill="#46b8d8"/><path d="M1050,70 L781,-103 L808,-140 Z" fill="#5ecbe8"/><path d="M1050,70 L840,-172 L877,-199 Z" fill="#46b8d8"/><path d="M1050,70 L917,-221 L960,-237 Z" fill="#5ecbe8"/><path d="M1050,70 L1004,-247 L1050,-250 Z" fill="#46b8d8"/><path d="M1050,70 L1096,-247 L1140,-237 Z" fill="#5ecbe8"/><path d="M1050,70 L1183,-221 L1223,-199 Z" fill="#46b8d8"/><path d="M1050,70 L1260,-172 L1292,-140 Z" fill="#5ecbe8"/><path d="M1050,70 L1319,-103 L1341,-63 Z" fill="#46b8d8"/><path d="M1050,70 L1357,-20 L1367,24 Z" fill="#5ecbe8"/></g><polygon points="890,0 1200,0 1200,142 868,150" fill="none" stroke="#111" stroke-width="7"/><g transform="translate(960,60) scale(0.7)"><ellipse cx="0" cy="0" rx="46" ry="26" fill="#fff" stroke="#111" stroke-width="5"/><ellipse cx="-30" cy="8" rx="28" ry="18" fill="#fff" stroke="#111" stroke-width="5"/><ellipse cx="30" cy="10" rx="26" ry="16" fill="#fff" stroke="#111" stroke-width="5"/><ellipse cx="0" cy="2" rx="44" ry="24" fill="#fff"/></g><g transform="translate(1120,95) scale(0.55)"><ellipse cx="0" cy="0" rx="46" ry="26" fill="#fff" stroke="#111" stroke-width="5"/><ellipse cx="-30" cy="8" rx="28" ry="18" fill="#fff" stroke="#111" stroke-width="5"/><ellipse cx="30" cy="10" rx="26" ry="16" fill="#fff" stroke="#111" stroke-width="5"/><ellipse cx="0" cy="2" rx="44" ry="24" fill="#fff"/></g><polygon points="1175,18 1145,62 1163,62 1130,115 1172,68 1154,68" fill="#ffd400" stroke="#111" stroke-width="4" stroke-linejoin="round"/><polygon points="866,168 1200,160 1200,300 850,300" fill="#1f6fd4" stroke="#111" stroke-width="7"/><polygon points="866,168 1200,160 1200,300 850,300" fill="url(#dotsB)"/><g transform="translate(940,265) scale(0.6)"><ellipse cx="0" cy="0" rx="46" ry="26" fill="#fff" stroke="#111" stroke-width="5"/><ellipse cx="-30" cy="8" rx="28" ry="18" fill="#fff" stroke="#111" stroke-width="5"/><ellipse cx="30" cy="10" rx="26" ry="16" fill="#fff" stroke="#111" stroke-width="5"/><ellipse cx="0" cy="2" rx="44" ry="24" fill="#fff"/></g><g transform="translate(1130,240) scale(0.5)"><ellipse cx="0" cy="0" rx="46" ry="26" fill="#fff" stroke="#111" stroke-width="5"/><ellipse cx="-30" cy="8" rx="28" ry="18" fill="#fff" stroke="#111" stroke-width="5"/><ellipse cx="30" cy="10" rx="26" ry="16" fill="#fff" stroke="#111" stroke-width="5"/><ellipse cx="0" cy="2" rx="44" ry="24" fill="#fff"/></g><path d="M 990 215 Q 1060 180 1110 215 Q 1050 245 990 215" fill="none" stroke="#111" stroke-width="4"/></svg>